<?xml version="1.0" encoding="UTF-8" standalone="no"?>
<!DOCTYPE svg PUBLIC "-//W3C//DTD SVG 1.1//EN" "http://www.w3.org/Graphics/SVG/1.1/DTD/svg11.dtd">
<svg width="100%" height="100%" viewBox="0 0 16 16" version="1.1" xmlns="http://www.w3.org/2000/svg" xmlns:xlink="http://www.w3.org/1999/xlink" xml:space="preserve" xmlns:serif="http://www.serif.com/" style="fill-rule:evenodd;clip-rule:evenodd;stroke-linejoin:round;stroke-miterlimit:1.41421;">
    <g transform="matrix(1,0,0,1,-392,0)">
        <g id="safari-pinned-tab" transform="matrix(0.175824,0,0,0.175824,308.308,-10.1978)">
            <rect x="476" y="58" width="91" height="91" style="fill:none;"/>
            <g transform="matrix(0.0686807,0,0,0.0686807,-23.027,34.8193)">
                <path d="M8027.97,659.817C8037.05,630.533 8055.29,594.085 8074.23,570.075C8094.49,544.384 8126.72,521.833 8151.34,509.344C8172.76,498.482 8198.11,492.402 8221.97,495.143C8250.72,498.446 8298.26,513.698 8323.89,529.163C8346.25,542.66 8365.02,564.104 8375.73,587.932C8386.83,612.645 8386.13,656.386 8390.49,677.439C8393.1,690.017 8393.74,696.123 8393.74,696.123L8395.29,700.055C8398.25,707.392 8404.87,723.149 8410.35,731.174C8421.52,747.539 8442.1,774.887 8460.75,794.313C8480.63,815.013 8515.01,841.597 8529.59,855.373C8536.5,861.905 8545.43,869.855 8548.23,876.973C8550.81,883.545 8548.93,894.329 8546.38,898.079C8543.84,901.81 8536.83,900.665 8532.92,899.476C8529.01,898.288 8522.93,890.947 8522.93,890.947C8522.93,890.947 8494.95,885.256 8481.47,880.681C8467.06,875.793 8450.67,869.622 8436.49,861.618C8421.24,853.01 8389.96,829.033 8389.96,829.033C8389.96,829.033 8368.96,819.789 8358.96,814.215C8353.9,811.398 8345.56,806.457 8336.8,801.193C8326.06,798.899 8306.45,794.935 8297.65,794.573C8288.1,794.181 8275.24,797.546 8269.45,799.737C8269.37,799.766 8269.3,799.798 8269.22,799.833C8271.29,801.419 8273.3,802.966 8275.24,804.472C8311.64,832.645 8351.98,858.693 8378.15,896.56C8405.12,935.579 8432.63,991.502 8437.07,1038.59C8441.5,1085.67 8434.16,1141.07 8404.76,1179.08C8370.03,1223.98 8298.4,1287.18 8228.7,1307.99C8178.16,1323.08 8098.13,1330.5 8024.79,1332.72C8024.92,1344.72 8025.23,1371.58 8025.54,1380.94C8025.76,1387.31 8027.19,1394.56 8027.16,1399.99C8027.15,1404.55 8025.45,1410.02 8025.39,1413.55C8025.35,1416.13 8027.29,1418.62 8026.82,1421.16C8026.29,1424.03 8021.97,1428.65 8022.21,1430.8C8022.44,1432.94 8026.86,1432.42 8028.23,1434.03C8029.6,1435.63 8028.52,1439.2 8030.41,1440.42C8034.4,1443 8044.6,1447.34 8052.16,1449.48C8061.47,1452.12 8074.72,1455.27 8086.27,1456.25C8098.02,1457.25 8114.46,1455.28 8122.68,1455.47C8127.02,1455.57 8131.32,1456.47 8135.55,1457.43C8140.69,1458.59 8147.38,1461.38 8153.51,1462.44C8161.99,1463.92 8177.72,1465.57 8186.47,1466.28C8192.95,1466.8 8202.75,1466.03 8205.98,1466.69C8206.36,1466.77 8206.36,1467.12 8206.23,1467.57C8207.31,1467.29 8209.59,1467.46 8211.24,1467.73C8213.86,1468.15 8218.84,1468.93 8221.71,1470.17C8224.58,1471.42 8227.04,1473.66 8228.47,1475.2C8229.76,1476.6 8230.7,1478.86 8230.27,1479.43C8229.85,1479.98 8227.22,1479.05 8225.84,1478.66C8224.95,1478.41 8223.73,1478.01 8222.4,1477.56C8222.01,1479.17 8220.7,1480.97 8219.46,1481.78C8216.7,1483.58 8210.13,1485.22 8205.24,1485.87C8197.74,1486.87 8182.88,1487.06 8174.41,1487.76C8167.73,1488.31 8160.66,1488.57 8154.43,1490.09C8154.03,1490.19 8153.62,1490.3 8153.22,1490.42C8154.64,1492.44 8155.79,1494.8 8156.56,1496.66C8157.68,1499.35 8158.31,1503.82 8157.78,1505.07C8157.27,1506.26 8154.72,1504.74 8153.37,1504.14C8150.93,1503.06 8146.08,1499.99 8143.15,1498.57C8141.51,1497.77 8139.34,1497.37 8137.66,1496.69C8137.44,1496.77 8137.22,1496.84 8137.01,1496.9C8133.1,1498.12 8129.05,1499.39 8124.96,1499.25C8116.15,1498.96 8097.79,1496.33 8084.18,1495.14C8063.94,1493.38 8020.31,1489.72 8003.52,1488.66C7996.84,1488.24 7989.98,1488.32 7983.43,1488.76C7983.11,1488.78 7982.8,1488.81 7982.49,1488.83C7982.49,1488.87 7982.5,1488.9 7982.51,1488.93C7982.89,1491.14 7982.49,1495.44 7981.58,1497.19C7980.86,1498.58 7978.73,1499.97 7977.03,1499.46C7975.11,1498.89 7971.99,1495.25 7970.08,1493.78C7968.91,1492.87 7967.09,1492.04 7966.1,1491.2C7965.43,1491.25 7964.79,1491.28 7964.17,1491.29C7961.17,1491.3 7957.6,1490.97 7954.62,1490.31C7955.83,1491.68 7956.82,1493.31 7957.48,1494.58C7958.38,1496.31 7958.94,1499.17 7958.55,1499.96C7958.19,1500.71 7956.22,1499.7 7955.18,1499.29C7953.31,1498.56 7949.55,1496.52 7947.3,1495.56C7946.93,1495.4 7946.52,1495.26 7946.1,1495.13C7942.7,1495.62 7938.28,1496.04 7933.95,1496.38C7934,1496.5 7934.05,1496.62 7934.1,1496.74C7935,1498.99 7935.51,1502.75 7935.07,1503.8C7934.65,1504.8 7932.57,1503.53 7931.46,1503.03C7929.47,1502.13 7925.5,1499.57 7923.11,1498.38C7922.22,1497.94 7921.14,1497.65 7920.11,1497.33C7913.56,1497.61 7906.99,1497.11 7900.42,1497.23C7889.35,1497.44 7864.87,1498.46 7850.8,1498.64C7851.26,1500.77 7851.42,1503.07 7851.09,1503.88C7850.65,1504.97 7848.48,1503.61 7847.32,1503.07C7845.24,1502.11 7841.11,1499.37 7838.62,1498.09C7838.39,1497.98 7838.15,1497.87 7837.9,1497.77C7835.22,1497.24 7832.56,1496.61 7829.85,1496.32C7823.18,1495.59 7813.11,1495.79 7804.89,1494.3C7796.01,1492.68 7782.14,1489.4 7776.57,1486.64C7773.51,1485.12 7772.18,1481.02 7771.49,1477.74C7770.81,1474.46 7773.13,1470.49 7772.47,1466.94C7771.78,1463.19 7767.91,1458.67 7767.31,1455.24C7766.8,1452.28 7768.86,1449.36 7768.9,1446.35C7769.01,1439.75 7768.47,1425.84 7767.93,1415.59C7767.15,1400.77 7766.32,1376.74 7764.22,1357.42C7762.03,1337.21 7756.65,1312.49 7754.76,1294.33C7754.14,1288.31 7753.4,1281.05 7752.86,1274.01C7751.36,1273.11 7749.87,1272.21 7748.37,1271.32C7691.07,1236.93 7602.39,1171.52 7552.53,1124.56C7511.28,1085.7 7481.28,1029.34 7449.23,989.526C7420.64,954.015 7383.87,911.446 7360.22,885.689C7343.69,867.697 7307.01,844.159 7307.31,834.984C7307.6,825.808 7344.52,836.086 7361.97,830.637C7382.56,824.206 7411.46,809.691 7430.83,796.403C7448.88,784.019 7469.24,765.428 7478.19,750.907C7485.56,738.958 7486.48,723.176 7484.52,709.277C7482.39,694.124 7463.93,671.453 7465.4,659.989C7466.84,648.721 7481.99,640.387 7493.35,640.492C7509.49,640.641 7539.99,656.403 7562.24,660.882C7583.45,665.152 7607.02,669.209 7626.83,667.363C7645.75,665.599 7662.86,655.221 7681.07,649.804C7702.07,643.559 7728.11,632.2 7752.83,629.894C7780.96,627.269 7824.19,630.918 7849.88,634.055C7869.39,636.437 7887.52,646.019 7906.99,648.719C7933.84,652.443 7977.55,649.988 8010.99,656.399C8016.64,657.483 8022.31,658.61 8027.97,659.817ZM7802.88,1301.95C7800.73,1304.62 7798.11,1307.28 7797.54,1310.37C7795.96,1318.93 7795.49,1333.92 7796.27,1345.67C7797.07,1357.72 7799.8,1372.47 7802.33,1382.67C7804.4,1391.03 7808.9,1399.63 7811.42,1406.85C7813.62,1413.16 7815.89,1421.59 7817.42,1425.98C7818.29,1428.46 7820.63,1430.74 7820.6,1433.19C7820.57,1435.63 7815.53,1438.53 7817.24,1440.67C7819.89,1444 7829.55,1449.96 7836.51,1453.14C7845.36,1457.18 7859.04,1461.08 7870.34,1464.92C7882.74,1469.14 7899.45,1474.77 7910.91,1478.46C7918.17,1480.8 7932.2,1483.75 7941.3,1486.14C7942.23,1485.89 7943.64,1485.96 7944.7,1486.14C7945.57,1486.29 7946.76,1486.5 7948.02,1486.8C7946.82,1485.2 7946.04,1483.17 7945.71,1481.52C7945.21,1478.97 7946.03,1475.97 7947.31,1473.61C7948.75,1470.93 7952.02,1468.2 7954.37,1465.49C7957.33,1462.09 7962.76,1456.74 7965.02,1453.21C7966.71,1450.58 7967.49,1447.32 7967.98,1444.3C7968.45,1441.27 7970.03,1435.12 7967.9,1435.05C7965.77,1434.98 7959.06,1441.32 7955.19,1443.86C7951.76,1446.11 7947.02,1449.7 7944.68,1450.28C7943.19,1450.64 7941.88,1448.67 7941.14,1447.32C7940.97,1447.01 7940.8,1446.64 7940.63,1446.24C7940.04,1446.69 7939.46,1447.14 7939,1447.64C7937.3,1449.46 7934.69,1453 7933.25,1454.44C7932.45,1455.24 7931.05,1457.02 7930.35,1456.26C7929.62,1455.45 7928.81,1451.91 7928.85,1449.6C7928.9,1447.06 7929.27,1443.32 7930.64,1441.02C7932.01,1438.71 7935.32,1436.8 7937.06,1435.78C7937.29,1435.64 7937.53,1435.52 7937.8,1435.39C7937.61,1434.11 7937.61,1432.85 7938.09,1431.71C7939.06,1429.46 7941.97,1427.27 7944.36,1425.6C7948.5,1422.69 7958.2,1418.79 7962.96,1414.29C7967.46,1410.05 7970.79,1404.44 7972.92,1398.63C7975.35,1392.02 7976.28,1382.65 7977.53,1374.59C7978.88,1365.92 7981.73,1344.76 7983.24,1333.45C7949.71,1333.61 7919.38,1332.66 7896.31,1330.9C7863.78,1328.42 7832.63,1316.85 7802.88,1301.95Z"/>
            </g>
        </g>
    </g>
</svg>
